<?xml version="1.0" encoding="UTF-8"?>
<svg version="1.1" xmlns="http://www.w3.org/2000/svg" width="2000" height="2000">
<path d="M0 0 C-1.33196587 2.85629616 -2.83763271 5.23360182 -4.80078125 7.6953125 C-5.63826904 8.75504272 -5.63826904 8.75504272 -6.49267578 9.83618164 C-7.09321777 10.5914917 -7.69375977 11.34680176 -8.3125 12.125 C-14.91987309 20.52887533 -21.24841396 29.09905564 -27.44287109 37.81054688 C-28.95332862 39.93437614 -30.47040237 42.05334619 -31.98828125 44.171875 C-85.16865071 118.66310728 -130.10287222 200.83594586 -173 325 C-172.31526611 325.01458252 -171.63053223 325.02916504 -170.92504883 325.04418945 C-99.69170135 326.70241412 -30.15903526 338.49703872 37.60546875 360.53125 C38.28377747 360.75166458 38.96208618 360.97207916 39.66094971 361.19917297 C42.39178742 362.09749544 45.06591277 363.02805253 47.7121582 364.15429688 C50.21878786 365.23114732 50.21878786 365.23114732 54 365 C55.89135858 362.98136382 55.89135858 362.98136382 57.5390625 360.2421875 C58.19688721 359.23091797 58.85471191 358.21964844 59.5324707 357.17773438 C60.22300537 356.08783203 60.91354004 354.99792969 61.625 353.875 C63.06729769 351.6525334 64.51130063 349.43117249 65.95703125 347.2109375 C66.65393066 346.13424805 67.35083008 345.05755859 68.06884766 343.94824219 C70.39471014 340.39740586 72.81402007 336.93068676 75.3125 333.5 C78.75151143 328.74979358 82.12153393 323.9619449 85.4375 319.125 C85.89769531 318.4537207 86.35789062 317.78244141 86.83203125 317.09082031 C88.22216859 315.06110298 89.61115769 313.03060361 91 311 C101.35634814 295.87198155 111.86185389 280.85045062 122.4375 265.875 C122.92959961 265.17753662 123.42169922 264.48007324 123.92871094 263.76147461 C126.03397851 260.77853319 128.14348963 257.79911452 130.265625 254.828125 C130.89984375 253.93609375 131.5340625 253.0440625 132.1875 252.125 C132.98220703 251.01511719 132.98220703 251.01511719 133.79296875 249.8828125 C136.32404031 245.93466852 136.19044286 242.03384449 136.23828125 237.51171875 C136.25304001 236.37560402 136.25304001 236.37560402 136.26809692 235.21653748 C136.90204392 173.09483815 123.2702123 112.22797416 107.40815735 52.46603394 C106.49207478 48.99388054 105.65682359 45.53085218 105 42 C105.66 42 106.32 42 107 42 C107.29543701 42.73710205 107.59087402 43.4742041 107.89526367 44.23364258 C114.85722232 61.524354 122.35276984 78.37979462 130.59130859 95.10888672 C132.15470095 98.31749891 133.65418446 101.55100839 135.13867188 104.79663086 C139.7527594 114.86495029 145.09078301 124.51309923 150.45751953 134.19580078 C151.93918212 136.88943428 153.3944322 139.59536559 154.83984375 142.30859375 C160.38538399 152.68937026 166.21624305 162.87217123 172.3125 172.9375 C172.95082764 173.99469238 173.58915527 175.05188477 174.24682617 176.14111328 C175.25509382 177.79226435 176.26487311 179.44313379 177.32142639 181.06381226 C179.81597066 184.91124051 181.89931641 188.81239048 183.89550781 192.94335938 C189.37621174 204.01018253 189.37621174 204.01018253 198.91897583 211.21322632 C207.27616009 212.9927086 215.67027144 212.23426631 224.125 211.625 C226.81837998 211.50201102 229.51262607 211.41323046 232.20727539 211.32299805 C238.91724919 211.07615791 245.60987085 210.6761754 252.30950928 210.23394775 C256.69376869 209.95602058 261.07894172 209.74767019 265.46740723 209.54975891 C306.21436216 207.69537999 346.72260495 202.22653509 387 196 C387 196.66 387 197.32 387 198 C386.17838379 198.26514404 385.35676758 198.53028809 384.51025391 198.8034668 C334.05649668 215.16241958 285.66645578 235.77441815 238 259 C236.4835791 259.73669922 236.4835791 259.73669922 234.93652344 260.48828125 C220.86494075 267.34540737 207.17709826 274.71189886 193.60888672 282.51416016 C190.53372043 284.26556031 187.43039691 285.96019847 184.32080078 287.64941406 C149.60818361 306.57490138 116.24109841 329.1738219 85.03564453 353.41845703 C83.02580212 354.97995369 81.01108297 356.53499757 78.99609375 358.08984375 C77.74696364 359.05933923 76.49824489 360.02936504 75.25 361 C74.68966064 361.43256104 74.12932129 361.86512207 73.55200195 362.31079102 C70.10659814 365.00808607 67.02994244 367.85783747 64 371 C64.58483154 371.16072998 65.16966309 371.32145996 65.7722168 371.48706055 C72.67180738 373.46078867 79.21608913 375.99761057 85.8125 378.8125 C86.93197021 379.28896973 88.05144043 379.76543945 89.20483398 380.25634766 C102.68254186 386.06433825 115.87022799 392.45071627 129 399 C130.08168457 399.53882813 131.16336914 400.07765625 132.27783203 400.6328125 C181.9322541 425.5251667 229.86225275 457.48937437 270.88671875 495.06640625 C272.85669206 496.86887721 274.85622056 498.62758399 276.875 500.375 C287.07072817 509.28516814 296.78192782 518.62062664 306.33813477 528.20776367 C308.32389676 530.19892777 310.3150074 532.18463221 312.30664062 534.16992188 C318.41854861 540.27863585 324.41580947 546.39884461 330 553 C331.61967817 554.77570221 333.24411718 556.54708307 334.875 558.3125 C338.91402153 562.74631311 342.77506878 567.28054584 346.5390625 571.94921875 C348.33280236 574.17288674 350.13872383 576.38198478 351.9609375 578.58203125 C360.37231328 588.77184173 368.27345711 599.28369926 376 610 C376.77923828 611.07701172 376.77923828 611.07701172 377.57421875 612.17578125 C389.7906628 629.10293637 401.00785269 646.63678569 411.58544922 664.62988281 C412.60874928 666.34444908 413.65506709 668.0453476 414.71533203 669.73730469 C415.27462402 670.63610352 415.83391602 671.53490234 416.41015625 672.4609375 C416.92843994 673.28126465 417.44672363 674.1015918 417.98071289 674.94677734 C418.31707764 675.62434082 418.65344238 676.3019043 419 677 C418.67 677.66 418.34 678.32 418 679 C416.88284356 677.57816453 415.76571146 676.15630994 414.64868164 674.734375 C413.65998754 673.47624731 412.67088075 672.21844384 411.68139648 670.9609375 C409.19216528 667.79632132 406.70817004 664.62808823 404.2421875 661.4453125 C398.22329917 653.69421222 391.97185686 646.19016242 385.53808594 638.78076172 C383.95463389 636.94747613 382.38573654 635.10260206 380.8203125 633.25390625 C374.01397725 625.21593839 374.01397725 625.21593839 366.67089844 617.671875 C365.02148376 616.02149631 363.5227944 614.30787231 362.015625 612.52734375 C357.59729084 607.44657934 352.85288008 602.70252958 348.0847168 597.9543457 C346.56508332 596.4400742 345.05087483 594.9205257 343.53710938 593.40039062 C338.74038526 588.60038433 333.89506883 583.90650375 328.73657227 579.49145508 C326.15309694 577.27263732 323.67942309 574.94614794 321.1875 572.625 C316.54095872 568.33248792 311.7590076 564.26661969 306.828125 560.30078125 C304.32183424 558.26182372 301.86405682 556.176249 299.41699219 554.06689453 C292.22268907 547.88189566 284.74294175 542.14793391 277.09472656 536.53710938 C275.71674865 535.52594982 274.34102671 534.51170744 272.96777344 533.49414062 C240.41081661 509.37672076 205.81406122 487.85980319 169.35400391 470.15039062 C166.60728372 468.8080814 163.87278283 467.44202007 161.13671875 466.078125 C81.15281031 426.53146187 -7.8437071 404.28072077 -359.06445312 434.60180664 C-383.43202694 442.88751691 -407.18232096 452.82436824 -430.45166016 463.80371094 C-432.78697055 464.89999576 -435.13062909 465.97436575 -437.48046875 467.0390625 C-464.88113539 479.52782341 -490.98609867 495.30447995 -516 512 C-518.58115219 508.67677215 -520.29445847 505.38963658 -522.0625 501.5625 C-533.49401973 477.99522208 -553.81724855 462.92178406 -577 452 C-575.65941675 447.97825024 -573.79662126 447.27146111 -570.26171875 444.97265625 C-569.38006798 444.39531235 -569.38006798 444.39531235 -568.48060608 443.80630493 C-566.55519264 442.54947091 -564.62188721 441.30547055 -562.6875 440.0625 C-561.34979364 439.19593742 -560.01222933 438.32915551 -558.67480469 437.4621582 C-548.25893376 430.7302378 -537.74428813 424.19656156 -527 418 C-526.08992187 417.47164551 -525.17984375 416.94329102 -524.2421875 416.39892578 C-488.66786792 395.82503105 -451.71804073 378.76031695 -413 365 C-411.89785156 364.60345215 -410.79570313 364.2069043 -409.66015625 363.79833984 C-406.46390257 362.64868617 -403.2642073 361.50936711 -400.0625 360.375 C-399.10287354 360.03170654 -398.14324707 359.68841309 -397.15454102 359.3347168 C-396.26951904 359.02574463 -395.38449707 358.71677246 -394.47265625 358.3984375 C-393.70187744 358.12692871 -392.93109863 357.85541992 -392.13696289 357.57568359 C-390 357 -390 357 -386 357 C-390.43772758 352.25181411 -395.45114723 348.41588166 -400.625 344.5 C-401.55940918 343.79149902 -402.49381836 343.08299805 -403.45654297 342.35302734 C-411.56604901 336.24861141 -419.84743363 330.44985609 -428.28710938 324.81347656 C-430.78470398 323.14391818 -433.27652402 321.46601744 -435.76686096 319.78565979 C-508.84412946 270.50209758 -589.27011907 229.54204245 -678.81640625 199.3984375 C-679.768535 199.0840699 -679.768535 199.0840699 -680.73989868 198.76335144 C-683.76909509 197.76590808 -686.80178527 196.78179678 -689.84082031 195.81469727 C-690.90010742 195.47237061 -691.95939453 195.13004395 -693.05078125 194.77734375 C-693.98575439 194.48077881 -694.92072754 194.18421387 -695.8840332 193.87866211 C-698 193 -698 193 -699 191 C-698.13752655 191.11275269 -698.13752655 191.11275269 -697.25762939 191.2277832 C-691.2551992 192.01223633 -685.25255191 192.79501159 -679.24975586 193.57666016 C-677.17565831 193.84684911 -675.10159839 194.11732719 -673.02758789 194.38818359 C-626.50357864 200.46119222 -580.03866833 205.16855205 -533.0625 205.1875 C-531.79059814 205.18838623 -530.51869629 205.18927246 -529.20825195 205.19018555 C-525.80315569 205.16923323 -522.40390077 205.08755848 -519 205 C-517.46230957 205.02682861 -517.46230957 205.02682861 -515.89355469 205.05419922 C-510.64193951 205.00760069 -510.64193951 205.00760069 -506.23168945 202.4753418 C-504.63209227 200.31454752 -503.37708542 198.12886843 -502.125 195.75 C-501.11790985 194.00218775 -500.1100707 192.2548069 -499.1015625 190.5078125 C-498.34020996 189.14317871 -498.34020996 189.14317871 -497.56347656 187.75097656 C-495.52906683 184.17138118 -493.34067041 180.70149206 -491.14013672 177.22241211 C-479.75145887 159.18666581 -469.52283833 140.49289661 -459.45166016 121.69921875 C-458.19122774 119.35556911 -456.91785445 117.01986669 -455.63671875 114.6875 C-445.87016456 96.77994801 -437.7390766 77.99518998 -429.4375 59.375 C-428.94918701 58.28010254 -428.46087402 57.18520508 -427.95776367 56.05712891 C-425.43999703 50.37315319 -423.04426757 44.6785861 -420.87915039 38.85009766 C-420 37 -420 37 -418 36 C-419.97288974 44.47439787 -421.96813966 52.94137942 -424.078125 61.3828125 C-437.26346027 114.25496123 -450.19550085 169.93148676 -449.0546875 224.75390625 C-449 228 -449 228 -449.1953125 231.15234375 C-449.37595736 241.59103626 -443.78453949 247.94772477 -437.66845703 255.82373047 C-435.04588316 259.24451236 -432.5913833 262.77837343 -430.125 266.3125 C-429.12952696 267.72439617 -428.13342172 269.1358468 -427.13671875 270.546875 C-419.13954338 281.89377228 -411.1708226 293.25970166 -403.32397461 304.71118164 C-399.24384596 310.66022952 -395.12271018 316.58040866 -391 322.5 C-389.63532922 324.46217877 -388.2707446 326.42441746 -386.90625 328.38671875 C-384.45333771 331.91398257 -381.99478637 335.43718205 -379.53125 338.95703125 C-378.52062168 340.40870684 -377.51019041 341.86051965 -376.5 343.3125 C-375.80583984 344.29863281 -375.80583984 344.29863281 -375.09765625 345.3046875 C-372 349.77264651 -372 349.77264651 -372 352 C-370.90171875 351.6596875 -369.8034375 351.319375 -368.671875 350.96875 C-328.8163021 338.94707328 -287.35872017 332.14935743 -246 328 C-244.83629883 327.88140625 -243.67259766 327.7628125 -242.47363281 327.640625 C-222.66070065 325.69466031 -202.88297736 325.78059697 -183 326 C-183.00523682 324.75355713 -183.01047363 323.50711426 -183.01586914 322.22290039 C-183.10811272 297.93311094 -183.04351765 273.65571236 -182.56872559 249.36981201 C-182.50005009 245.75263804 -182.43877909 242.13541191 -182.37988281 238.51806641 C-182.21727656 228.70225644 -182.05454196 218.89117803 -181.68252563 209.08071899 C-181.55405474 205.51689035 -181.46457215 201.95275692 -181.38330078 198.38757324 C-181.33726177 196.79438544 -181.27328594 195.20158025 -181.18847656 193.60998535 C-180.50886805 180.73884604 -184.46046663 173.24725376 -192 163 C-193.11130023 161.36719408 -194.22105443 159.73333291 -195.328125 158.09765625 C-196.29512967 156.74759629 -197.26900451 155.40242828 -198.25 154.0625 C-198.78592773 153.32580078 -199.32185547 152.58910156 -199.87402344 151.83007812 C-208.00496375 140.77877116 -216.80360849 130.22467828 -226.0703125 120.109375 C-227.85170396 118.16210498 -229.5875977 116.18475529 -231.3125 114.1875 C-241.10402013 102.98856847 -251.46162137 92.37819539 -261.9921875 81.87744141 C-264.26419369 79.61084007 -266.53074444 77.33888041 -268.796875 75.06640625 C-270.26530417 73.59863729 -271.7340432 72.13117824 -273.203125 70.6640625 C-273.86789856 69.99726471 -274.53267212 69.33046692 -275.21759033 68.64346313 C-279.07535933 64.80465407 -283.03656298 61.14319723 -287.16514587 57.59674072 C-290.30190715 54.86704445 -293.29542081 51.98539997 -296.3125 49.125 C-301.61584891 44.12299282 -307.0459394 39.4549887 -312.74609375 34.91015625 C-315.58374187 32.50528635 -317.78535856 29.9783109 -320 27 C-315.10596316 28.63453183 -311.21318681 31.41870105 -307 34.3125 C-260.38899831 65.79495133 -209.86114392 92.27271249 -158 114 C-157.14833252 114.40549072 -156.29666504 114.81098145 -155.41918945 115.22875977 C-152.45227954 116.17461388 -150.95038918 115.94482182 -148 115 C-145.64714067 113.82482548 -145.64714067 113.82482548 -143.33203125 112.296875 C-142.44813721 111.73548828 -141.56424316 111.17410156 -140.65356445 110.59570312 C-139.71601318 109.98662109 -138.77846191 109.37753906 -137.8125 108.75 C-136.83434326 108.12029297 -135.85618652 107.49058594 -134.84838867 106.84179688 C-126.44812242 101.38677714 -118.30001928 95.63244713 -110.25488281 89.66943359 C-107.8820558 87.91267839 -105.5004898 86.16829445 -103.1171875 84.42578125 C-89.05530429 74.1308709 -75.30465609 63.5282518 -61.8203125 52.48828125 C-60.22738135 51.18590621 -58.6297048 49.88933968 -57.03125 48.59375 C-46.85904091 40.33630968 -36.92108596 31.80846112 -27.21875 23.00390625 C-25.20691607 21.18688018 -23.17339566 19.40055608 -21.125 17.625 C-17.59755919 14.55201475 -14.13713594 11.40966354 -10.6875 8.25 C-10.1713916 7.77771973 -9.6552832 7.30543945 -9.12353516 6.81884766 C-7.12064095 4.97907915 -5.13972555 3.14761073 -3.26953125 1.171875 C-2 0 -2 0 0 0 Z " fill="#FBC200" transform="translate(1226,324)"/>
<path d="M0 0 C25.08 0 50.16 0 76 0 C89.60509554 23.8089172 89.60509554 23.8089172 95.4375 34.375 C100.63203118 43.75492306 105.86974848 53.10851279 111.15600586 62.43701172 C115.12620629 69.44567417 119.06868319 76.46945989 123 83.5 C128.00317011 92.44621202 133.03273884 101.37696433 138.08349609 110.29638672 C142.89239598 118.79470873 147.66201117 127.31483395 152.41992188 135.84179688 C152.97486328 136.83501953 153.52980469 137.82824219 154.1015625 138.8515625 C154.58963379 139.72635254 155.07770508 140.60114258 155.58056641 141.50244141 C156.57690767 143.25554962 157.61441222 144.98559359 158.68115234 146.69677734 C160 149 160 149 160 151 C160.66 151 161.32 151 162 151 C162.32097656 149.82630859 162.32097656 149.82630859 162.6484375 148.62890625 C164.46649215 143.74748207 167.01856337 139.43691842 169.625 134.9375 C170.8086938 132.86929143 171.99091728 130.80024085 173.171875 128.73046875 C173.79642578 127.63653809 174.42097656 126.54260742 175.06445312 125.41552734 C178.38550459 119.55509469 181.62936212 113.65238647 184.875 107.75 C186.23535386 105.27846783 187.59615875 102.80718413 188.95703125 100.3359375 C189.46255272 99.41774483 189.46255272 99.41774483 189.97828674 98.48100281 C195.33679743 88.75214464 200.74240919 79.04936217 206.14111328 69.34277344 C208.63700038 64.85450365 211.13098068 60.3651759 213.62475586 55.87573242 C214.86883854 53.63618923 216.11313977 51.39676743 217.35766602 49.1574707 C220.24718098 43.95801159 223.13517319 38.75772739 226.01696777 33.5539856 C227.3556072 31.13701564 228.69522632 28.72058932 230.03491211 26.30419922 C230.96237229 24.63040693 231.88844222 22.95584453 232.81445312 21.28125 C233.39130859 20.24097656 233.96816406 19.20070313 234.5625 18.12890625 C235.05878906 17.23244385 235.55507812 16.33598145 236.06640625 15.41235352 C238.99388236 10.24602352 242.00796132 5.12920916 245 0 C269.42 0 293.84 0 319 0 C319 93.72 319 187.44 319 284 C292.93 284 266.86 284 240 284 C239.67 241.1 239.34 198.2 239 154 C232.07 166.375 232.07 166.375 225 179 C221.20598315 185.72082984 217.41092407 192.44094896 213.60888672 199.15722656 C211.44619444 202.97852988 209.28573019 206.80109035 207.12548828 210.6237793 C206.04727323 212.53162723 204.96882508 214.43934346 203.89013672 216.34692383 C201.09062082 221.29799018 198.29462751 226.25100169 195.50390625 231.20703125 C194.92769531 232.22925781 194.35148437 233.25148438 193.7578125 234.3046875 C192.66685464 236.24025789 191.57692733 238.17640968 190.48828125 240.11328125 C189.4885974 241.88591654 188.46855374 243.64724343 187.42724609 245.39575195 C185.92666678 247.97360655 185.92666678 247.97360655 184.98291016 250.82885742 C183.66123971 254.03343603 182.67420217 255.76378264 180 258 C174.52478695 259.8141676 168.71651547 259.73154934 163.00683594 259.68823242 C160.26047362 259.68750278 157.54628067 259.83002881 154.8046875 259.98242188 C142.54614078 260.27705938 142.54614078 260.27705938 138.26306152 256.44662476 C135.08113511 252.40380458 132.98641222 247.88271826 130.96447754 243.17721558 C129.61908737 240.14012625 127.94516071 237.34005921 126.234375 234.49609375 C125.07232581 232.47690242 123.91087325 230.45736763 122.75 228.4375 C117.29490207 218.96314801 111.80544421 209.50974092 106.28808594 200.0715332 C103.17758049 194.74609086 100.07940469 189.4138005 97 184.0703125 C96.66508545 183.48916687 96.3301709 182.90802124 95.98510742 182.30926514 C94.37126114 179.50788817 92.75903111 176.70559212 91.1484375 173.90234375 C90.56320312 172.88527344 89.97796875 171.86820313 89.375 170.8203125 C88.86710938 169.93617676 88.35921875 169.05204102 87.8359375 168.14111328 C85.26240444 163.73804462 82.62393269 159.37322116 80 155 C79.67 197.57 79.34 240.14 79 284 C52.93 284 26.86 284 0 284 C0 190.28 0 96.56 0 0 Z " fill="#2E3190" transform="translate(913,967)"/>
<path d="M0 0 C5.25490818 1.60653011 9.08221263 4.94516776 13.3125 8.3125 C14.10358154 8.93552002 14.89466309 9.55854004 15.7097168 10.20043945 C18.14663752 12.12522017 20.57501431 14.06020989 23 16 C23.72316406 16.5784668 24.44632812 17.15693359 25.19140625 17.75292969 C37.9079383 27.95586685 50.38782905 38.36361719 62.32641602 49.4699707 C63.53329356 50.57332615 64.75439279 51.661196 65.98413086 52.73901367 C73.945799 59.75280394 81.40657646 67.25529126 88.89624023 74.76586914 C91.18946748 77.0644721 93.4880124 79.3576603 95.78710938 81.65039062 C97.26855 83.13249187 98.7496805 84.6149032 100.23046875 86.09765625 C100.9066777 86.77184097 101.58288666 87.4460257 102.27958679 88.14064026 C106.17353751 92.05353581 109.89028028 96.07079204 113.49241638 100.25430298 C115.56685332 102.65638425 117.72148392 104.98133697 119.875 107.3125 C123.96437787 111.79662928 127.84619021 116.40267238 131.65625 121.125 C133.75034348 123.69375467 135.88213341 126.22072342 138.03710938 128.73803711 C143.94331711 135.64199855 149.53140508 142.7450786 155 150 C155.45987305 150.60682617 155.91974609 151.21365234 156.39355469 151.83886719 C167.57063676 166.58777238 178.55241798 181.47376384 188.67382812 196.97167969 C190.11472285 199.17546345 191.5652295 201.37277127 193.015625 203.5703125 C211.02797868 230.960544 227.70471284 259.20538956 242.64746094 288.38476562 C243.91071037 290.8273519 245.20083387 293.25246404 246.5078125 295.671875 C257.24677753 315.5744699 266.37065384 336.20212266 275.0625 357.0625 C275.38205658 357.82867645 275.70161316 358.59485291 276.03085327 359.38424683 C286 383.34221724 286 383.34221724 286 388 C286.66 388 287.32 388 288 388 C288.25706978 387.09406601 288.25706978 387.09406601 288.51933289 386.16983032 C290.33773408 379.9184623 292.4912141 373.88379074 294.89453125 367.8359375 C295.27409973 366.87106918 295.65366821 365.90620087 296.04473877 364.91209412 C297.29690495 361.73156867 298.55470669 358.55330382 299.8125 355.375 C300.70474781 353.11173075 301.59658496 350.84829956 302.48803711 348.5847168 C304.36588841 343.81765223 306.24576175 339.05139196 308.12695312 334.28564453 C310.94211897 327.15079913 313.74610531 320.01160071 316.546875 312.87109375 C328.30757118 282.89131514 340.13418819 252.93835595 352 223 C381.37 223 410.74 223 441 223 C440.14718574 227.2640713 438.96767468 230.98823506 437.38671875 234.99609375 C436.97240097 236.0599102 436.97240097 236.0599102 436.54971313 237.1452179 C435.60027568 239.57781867 434.64410714 242.00771033 433.6875 244.4375 C432.97872345 246.24575399 432.2699847 248.05402281 431.5612793 249.86230469 C423.71956355 269.83183635 415.72420334 289.74064517 407.74438477 309.65527344 C398.05954613 333.82714903 388.42519868 358.01888175 378.80590057 382.2169075 C362.26163149 423.83453622 345.64706907 465.42332996 329 507 C299.3 507 269.6 507 239 507 C236.4425 500.1525 233.885 493.305 231.25 486.25 C197.73790456 396.8270109 162.50486191 307.96644228 98.55371094 169.22509766 C96.90538322 165.8036003 95.26845767 162.37679577 93.6328125 158.94921875 C82.84312594 136.37106405 71.51728752 114.13227587 59.078125 92.41015625 C56.62563485 88.12287973 54.24532234 83.80182885 51.89477539 79.45800781 C38.32015281 54.41323959 23.18752982 29.73339551 5.1015625 7.671875 C3.16103588 5.20473707 1.5435735 2.72863961 0 0 Z " fill="#2E3190" transform="translate(333,744)"/>
<path d="M0 0 C29.7 0 59.4 0 90 0 C99.45458667 22.80223845 108.89018437 45.59050089 118.140625 68.47265625 C122.29378911 78.74369154 126.4890653 88.99740361 130.6875 99.25 C132.21490031 102.9804456 133.74223881 106.71091649 135.26953125 110.44140625 C135.65508682 111.38310669 136.0406424 112.32480713 136.43788147 113.29504395 C140.92478324 124.2559862 145.40017038 135.22162498 149.875 146.1875 C150.28992706 147.20423798 150.70485413 148.22097595 151.13235474 149.26852417 C154.51213482 157.55034782 157.8914606 165.83235681 161.27075195 174.11437988 C170.77715854 197.41265849 180.28610354 220.70988637 189.8125 244 C190.17950012 244.89739899 190.54650024 245.79479797 190.92462158 246.71939087 C191.63480593 248.45584168 192.34514954 250.19222736 193.05566406 251.92854309 C193.73043428 253.57802041 194.40460558 255.22774288 195.078125 256.87773132 C196.72103418 260.8980704 198.37887041 264.91120352 200.06396484 268.9140625 C200.39192551 269.69724854 200.71988617 270.48043457 201.05778503 271.28735352 C201.67678566 272.76367947 202.30000446 274.23824658 202.92817688 275.71069336 C204.15405693 278.64173234 205 280.78839739 205 284 C174.64 284 144.28 284 113 284 C110.03 275.95625 107.06 267.9125 104 259.625 C103.06027344 257.08506348 102.12054687 254.54512695 101.15234375 251.92822266 C100.41380582 249.92359715 99.67550792 247.91888319 98.9375 245.9140625 C98.54884766 244.86629639 98.16019531 243.81853027 97.75976562 242.73901367 C97.39431641 241.74442139 97.02886719 240.7498291 96.65234375 239.72509766 C96.33257568 238.85905914 96.01280762 237.99302063 95.68334961 237.10073853 C95 235 95 235 95 233 C61.34 233 27.68 233 -7 233 C-7.99 236.3 -8.98 239.6 -10 243 C-14.95 256.53 -19.9 270.06 -25 284 C-55.03 284 -85.06 284 -116 284 C-115.31909192 280.5954596 -114.77543755 278.13303537 -113.50390625 275.04394531 C-113.19780426 274.2941188 -112.89170227 273.5442923 -112.57632446 272.77174377 C-112.24176239 271.96534958 -111.90720032 271.15895538 -111.5625 270.328125 C-111.21077728 269.47045029 -110.85905457 268.61277557 -110.49667358 267.72911072 C-109.33548493 264.90092182 -108.16781142 262.07545996 -107 259.25 C-106.18276907 257.2635661 -105.36587935 255.27699179 -104.54931641 253.2902832 C-98.48183038 238.54062904 -92.37187616 223.8084071 -86.25341797 209.07983398 C-81.51426777 197.66946054 -76.80796593 186.24604013 -72.125 174.8125 C-66.27551881 160.5310636 -60.39657194 146.26205782 -54.5 132 C-48.64649931 117.84154631 -42.8085488 103.67695543 -37 89.5 C-31.06330316 75.01187903 -25.10179159 60.53412733 -19.125 46.0625 C-18.73989258 45.12970215 -18.35478516 44.1969043 -17.95800781 43.23583984 C-12.00207019 28.81122353 -6.00229484 14.40550761 0 0 Z M43 95 C40.32917562 102.35434275 37.66007159 109.70930745 34.9930687 117.06503677 C33.75417457 120.48180726 32.51472323 123.89837332 31.27392578 127.31445312 C30.07301887 130.6207766 28.87367055 133.92766183 27.67533112 137.23491669 C27.00292386 139.08946586 26.32896794 140.94345329 25.65496826 142.79742432 C25.23483459 143.95772156 24.81470093 145.1180188 24.38183594 146.31347656 C24.01765564 147.31719299 23.65347534 148.32090942 23.27825928 149.3550415 C21.45687854 154.54871177 19.74044933 159.77865202 18 165 C35.16 165 52.32 165 70 165 C66.5209849 154.56295469 63.05594933 144.18161565 59.2578125 133.8671875 C58.84457733 132.73846222 58.43134216 131.60973694 58.00558472 130.44680786 C56.71449342 126.92197278 55.41982814 123.39846384 54.125 119.875 C53.23673942 117.45191079 52.34871695 115.02873428 51.4609375 112.60546875 C49.31003056 106.73597177 47.15620631 100.86755215 45 95 C44.34 95 43.68 95 43 95 Z " fill="#2E3190" transform="translate(1368,967)"/>
<path d="M0 0 C8.54676439 0.77697858 14.56055001 1.71073238 22.375 4.375 C23.41084229 4.7265918 24.44668457 5.07818359 25.51391602 5.44042969 C56.62594584 16.42254196 83.61742083 37.27280317 104 63 C104.42249023 63.52964355 104.84498047 64.05928711 105.28027344 64.60498047 C120 83.10647672 120 83.10647672 120 88 C120.66 88 121.32 88 122 88 C122.103125 86.700625 122.20625 85.40125 122.3125 84.0625 C122.87409544 79.07054051 124.21946419 74.6801951 126 70 C126.30760254 69.18329834 126.61520508 68.36659668 126.93212891 67.52514648 C133.87644022 49.63948738 143.81280778 34.92829063 157 21 C157.83144531 20.10410156 158.66289063 19.20820312 159.51953125 18.28515625 C166.322673 11.18319422 173.66659347 5.22680328 182 0 C182.66 0 183.32 0 184 0 C184 66.33 184 132.66 184 201 C166.84 201 149.68 201 132 201 C128.7 196.71 125.4 192.42 122 188 C120.1925543 185.68354742 118.38122943 183.3701039 116.5625 181.0625 C115.63669976 179.8867337 114.71091909 178.71095199 113.78515625 177.53515625 C113.32512207 176.95137207 112.86508789 176.36758789 112.39111328 175.76611328 C110.09125763 172.84628952 107.79584055 169.92298107 105.5 167 C104.5833549 165.83331639 103.66668823 164.66664973 102.75 163.5 C97.25 156.5 97.25 156.5 95.87524414 154.75024414 C94.95784991 153.5826959 94.04036933 152.41521551 93.12280273 151.24780273 C90.84155755 148.3451721 88.56178786 145.44140726 86.28515625 142.53515625 C80.03284487 134.55799197 73.72459118 126.6272591 67.38110352 118.72241211 C65.58553246 116.48310615 63.79305616 114.2413202 62 112 C61.67 141.37 61.34 170.74 61 201 C40.87 201 20.74 201 0 201 C0 134.67 0 68.34 0 0 Z " fill="#2E3190" transform="translate(759,1287)"/>
<path d="M0 0 C20.13 0 40.26 0 61 0 C61 23.43 61 46.86 61 71 C81.13 71 101.26 71 122 71 C122 47.57 122 24.14 122 0 C142.13 0 162.26 0 183 0 C183 66.33 183 132.66 183 201 C162.87 201 142.74 201 122 201 C122 175.92 122 150.84 122 125 C101.87 125 81.74 125 61 125 C61 150.08 61 175.16 61 201 C40.87 201 20.74 201 0 201 C0 134.67 0 68.34 0 0 Z " fill="#2E3190" transform="translate(1149,1287)"/>
<path d="M0 0 C21.12 0 42.24 0 64 0 C66.94646631 5.89293262 69.6844608 11.40187408 72.1015625 17.453125 C72.37525162 18.13391113 72.64894073 18.81469727 72.93092346 19.51611328 C73.52203069 20.98714114 74.11136564 22.45888221 74.69906616 23.93127441 C76.34037809 28.04145142 77.9969264 32.1454883 79.65234375 36.25 C80.00325577 37.12078186 80.35416779 37.99156372 80.7157135 38.88873291 C84.81058143 49.03492559 89.00004157 59.14176273 93.1875 69.25 C99.85585934 85.35743837 106.48078605 101.48196055 113.0625 117.625 C113.47455688 118.63561493 113.88661377 119.64622986 114.31115723 120.68746948 C115.9661806 124.74690335 117.62104289 128.80640281 119.27563477 132.86601257 C123.43087331 143.06001124 127.59490935 153.25040527 131.76242065 163.43939209 C132.53352937 165.32477843 133.30447005 167.21023351 134.07522583 169.09576416 C134.79864608 170.86548612 135.5222768 172.63512206 136.24613953 174.40466309 C136.9212665 176.0552332 137.59585802 177.70602245 138.26985168 179.35705566 C139.69435003 182.84080101 141.12832977 186.31888653 142.60986328 189.77880859 C143.06989746 190.85598145 143.52993164 191.9331543 144.00390625 193.04296875 C144.39521729 193.94426514 144.78652832 194.84556152 145.18969727 195.77416992 C146 198 146 198 146 201 C124.55 201 103.1 201 81 201 C77.84923352 193.91077542 74.96774168 186.875262 72.25 179.625 C71.83878906 178.54605469 71.42757813 177.46710938 71.00390625 176.35546875 C70.61589844 175.32292969 70.22789062 174.29039062 69.828125 173.2265625 C69.4765332 172.29408691 69.12494141 171.36161133 68.76269531 170.40087891 C68 168 68 168 68 165 C44.24 165.33 20.48 165.66 -4 166 C-10.435 183.325 -10.435 183.325 -17 201 C-38.45 201 -59.9 201 -82 201 C-81.09820853 196.49104263 -79.75391171 192.62566283 -78 188.421875 C-77.69280533 187.67549774 -77.38561066 186.92912048 -77.06910706 186.16012573 C-76.05041786 183.68826465 -75.02525377 181.21914472 -74 178.75 C-73.27689354 176.9993385 -72.55416273 175.24852179 -71.83178711 173.49755859 C-69.93642085 168.90690523 -68.03536828 164.3186302 -66.13250732 159.7310791 C-64.68659232 156.24420695 -63.24308276 152.75634164 -61.79956055 149.26847839 C-57.91692236 139.88806124 -54.02580408 130.51117522 -50.13232422 121.13525391 C-46.62753551 112.69530974 -43.1258772 104.25406728 -39.625 95.8125 C-39.27934998 94.97910095 -38.93369995 94.1457019 -38.57757568 93.28704834 C-32.01844518 77.47083768 -25.47896585 61.64653192 -18.94580078 45.81958008 C-12.63934283 30.54271736 -6.31927903 15.27159099 0 0 Z M31 67 C28.59672169 73.63839959 26.19402959 80.27701113 23.79174805 86.91577148 C22.97417534 89.17493515 22.15646764 91.43404998 21.33862305 93.69311523 C20.1641969 96.93720929 18.99025375 100.18147778 17.81640625 103.42578125 C17.26636681 104.94465691 17.26636681 104.94465691 16.70521545 106.49421692 C16.3649382 107.43496567 16.02466095 108.37571442 15.67407227 109.3449707 C15.22439842 110.58740288 15.22439842 110.58740288 14.76564026 111.85493469 C14.15611668 113.56261381 13.57338355 115.27984935 13 117 C25.21 117 37.42 117 50 117 C44.573132 100.11641067 38.29042617 83.57608177 32 67 C31.67 67 31.34 67 31 67 Z " fill="#2E3190" transform="translate(1429,1287)"/>
<path d="M0 0 C29.37 0 58.74 0 89 0 C89 93.72 89 187.44 89 284 C59.63 284 30.26 284 0 284 C0 190.28 0 96.56 0 0 Z " fill="#2E3190" transform="translate(795,967)"/>
<path d="M0 0 C50.49 0 100.98 0 153 0 C153 16.5 153 33 153 50 C122.64 50 92.28 50 61 50 C61 58.25 61 66.5 61 75 C87.73 75 114.46 75 142 75 C142 90.51 142 106.02 142 122 C115.27 122 88.54 122 61 122 C61 131.57 61 141.14 61 151 C91.36 151 121.72 151 153 151 C153 167.5 153 184 153 201 C102.51 201 52.02 201 0 201 C0 134.67 0 68.34 0 0 Z " fill="#2E3190" transform="translate(971,1287)"/>
<path d="M0 0 C0 17.82 0 35.64 0 54 C-5.61 51.36 -11.22 48.72 -17 46 C-39.75821244 38.29985293 -69.28118781 32.19270005 -92.2421875 41.953125 C-94.24455417 42.89588585 -94.24455417 42.89588585 -94.875 45.375 C-95.01892885 48.3975058 -94.61892626 49.47879218 -93 52 C-86.48694739 56.5696548 -78.77561651 58.33003508 -71.125 60 C-68.9100312 60.50987373 -66.69518896 61.02029754 -64.48046875 61.53125 C-62.84150635 61.9025 -62.84150635 61.9025 -61.16943359 62.28125 C-13.17826775 73.16447233 -13.17826775 73.16447233 0.25 93.625 C8.63713629 108.84100682 9.76323558 128.08926608 5.375 144.8125 C0.51278631 158.82111566 -7.74277139 170.85133252 -21 178 C-37.53942072 185.51354233 -55.84551863 190.03908528 -74.03125 190.23828125 C-75.14880676 190.25297203 -75.14880676 190.25297203 -76.28894043 190.26795959 C-102.84687516 190.54487759 -128.09765884 187.96093646 -153 178 C-153 160.18 -153 142.36 -153 124 C-147.72 126.64 -142.44 129.28 -137 132 C-113.62538269 139.96861954 -83.56236338 145.65700835 -59.8984375 136.15625 C-57.95025486 135.23655595 -57.95025486 135.23655595 -56 133 C-55.0831978 129.54321553 -55.0831978 129.54321553 -56 126 C-62.5151342 116.3396286 -78.57296609 115.37994341 -89.22802734 113.14819336 C-102.05543858 110.44258507 -114.74560359 107.17046237 -126.4375 101.0625 C-127.10579834 100.71896484 -127.77409668 100.37542969 -128.46264648 100.02148438 C-133.35414205 97.45412152 -137.91970074 94.76197804 -142 91 C-142.57621094 90.47664063 -143.15242187 89.95328125 -143.74609375 89.4140625 C-147.93215242 85.14409619 -150.63134673 80.28796547 -153.3125 75 C-153.65023437 74.33564941 -153.98796875 73.67129883 -154.3359375 72.98681641 C-160.7301227 59.81984294 -161.39673611 42.73006191 -157.375 28.6875 C-151.42227653 12.83445749 -141.61978521 4.27942415 -126.40625 -2.6328125 C-87.89062975 -18.73834705 -38.58304829 -12.8610161 0 0 Z " fill="#2E3190" transform="translate(734,1297)"/>
<path d="M0 0 C-1.33196587 2.85629616 -2.83763271 5.23360182 -4.80078125 7.6953125 C-5.35910645 8.40179932 -5.91743164 9.10828613 -6.49267578 9.83618164 C-7.09321777 10.5914917 -7.69375977 11.34680176 -8.3125 12.125 C-14.91987309 20.52887533 -21.24841396 29.09905564 -27.44287109 37.81054688 C-28.95332862 39.93437614 -30.47040237 42.05334619 -31.98828125 44.171875 C-85.16865071 118.66310728 -130.10287222 200.83594586 -172.43286133 323.27294922 C-173 325 -173 325 -174 326 C-175.51928038 326.07179964 -177.04167482 326.08392007 -178.5625 326.0625 C-179.38878906 326.05347656 -180.21507812 326.04445313 -181.06640625 326.03515625 C-181.70449219 326.02355469 -182.34257813 326.01195312 -183 326 C-183.10734054 300.45129995 -183.06812918 274.91460656 -182.56872559 249.36981201 C-182.50005009 245.75263804 -182.43877909 242.13541191 -182.37988281 238.51806641 C-182.21727656 228.70225644 -182.05454196 218.89117803 -181.68252563 209.08071899 C-181.55405474 205.51689035 -181.46457215 201.95275692 -181.38330078 198.38757324 C-181.33726177 196.79438544 -181.27328594 195.20158025 -181.18847656 193.60998535 C-180.50886805 180.73884604 -184.46046663 173.24725376 -192 163 C-193.11130023 161.36719408 -194.22105443 159.73333291 -195.328125 158.09765625 C-196.29512967 156.74759629 -197.26900451 155.40242828 -198.25 154.0625 C-198.78592773 153.32580078 -199.32185547 152.58910156 -199.87402344 151.83007812 C-208.00496375 140.77877116 -216.80360849 130.22467828 -226.0703125 120.109375 C-227.85170396 118.16210498 -229.5875977 116.18475529 -231.3125 114.1875 C-241.10402013 102.98856847 -251.46162137 92.37819539 -261.9921875 81.87744141 C-264.26419369 79.61084007 -266.53074444 77.33888041 -268.796875 75.06640625 C-270.26530417 73.59863729 -271.7340432 72.13117824 -273.203125 70.6640625 C-273.86789856 69.99726471 -274.53267212 69.33046692 -275.21759033 68.64346313 C-279.07535933 64.80465407 -283.03656298 61.14319723 -287.16514587 57.59674072 C-290.30190715 54.86704445 -293.29542081 51.98539997 -296.3125 49.125 C-301.61584891 44.12299282 -307.0459394 39.4549887 -312.74609375 34.91015625 C-315.58374187 32.50528635 -317.78535856 29.9783109 -320 27 C-315.10596316 28.63453183 -311.21318681 31.41870105 -307 34.3125 C-260.38899831 65.79495133 -209.86114392 92.27271249 -158 114 C-157.14833252 114.40549072 -156.29666504 114.81098145 -155.41918945 115.22875977 C-152.45227954 116.17461388 -150.95038918 115.94482182 -148 115 C-145.64714067 113.82482548 -145.64714067 113.82482548 -143.33203125 112.296875 C-142.44813721 111.73548828 -141.56424316 111.17410156 -140.65356445 110.59570312 C-139.71601318 109.98662109 -138.77846191 109.37753906 -137.8125 108.75 C-136.83434326 108.12029297 -135.85618652 107.49058594 -134.84838867 106.84179688 C-126.44812242 101.38677714 -118.30001928 95.63244713 -110.25488281 89.66943359 C-107.8820558 87.91267839 -105.5004898 86.16829445 -103.1171875 84.42578125 C-89.05530429 74.1308709 -75.30465609 63.5282518 -61.8203125 52.48828125 C-60.22738135 51.18590621 -58.6297048 49.88933968 -57.03125 48.59375 C-46.85904091 40.33630968 -36.92108596 31.80846112 -27.21875 23.00390625 C-25.20691607 21.18688018 -23.17339566 19.40055608 -21.125 17.625 C-17.59755919 14.55201475 -14.13713594 11.40966354 -10.6875 8.25 C-10.1713916 7.77771973 -9.6552832 7.30543945 -9.12353516 6.81884766 C-7.12064095 4.97907915 -5.13972555 3.14761073 -3.26953125 1.171875 C-2 0 -2 0 0 0 Z " fill="#0EA1A8" transform="translate(1226,324)"/>
<path d="M0 0 C0.66 0 1.32 0 2 0 C2.29543701 0.73710205 2.59087402 1.4742041 2.89526367 2.23364258 C9.85722232 19.524354 17.35276984 36.37979462 25.59130859 53.10888672 C27.15470095 56.31749891 28.65418446 59.55100839 30.13867188 62.79663086 C34.7527594 72.86495029 40.09078301 82.51309923 45.45751953 92.19580078 C46.93918212 94.88943428 48.3944322 97.59536559 49.83984375 100.30859375 C55.38538399 110.68937026 61.21624305 120.87217123 67.3125 130.9375 C67.95082764 131.99469238 68.58915527 133.05188477 69.24682617 134.14111328 C70.25509382 135.79226435 71.26487311 137.44313379 72.32142639 139.06381226 C74.81597066 142.91124051 76.89931641 146.81239048 78.89550781 150.94335938 C84.37621174 162.01018253 84.37621174 162.01018253 93.91897583 169.21322632 C102.27616009 170.9927086 110.67027144 170.23426631 119.125 169.625 C121.81837998 169.50201102 124.51262607 169.41323046 127.20727539 169.32299805 C133.91724919 169.07615791 140.60987085 168.6761754 147.30950928 168.23394775 C151.69376869 167.95602058 156.07894172 167.74767019 160.46740723 167.54975891 C201.21436216 165.69537999 241.72260495 160.22653509 282 154 C282 154.66 282 155.32 282 156 C280.76757568 156.39771606 280.76757568 156.39771606 279.51025391 156.8034668 C229.05649668 173.16241958 180.66645578 193.77441815 133 217 C131.98905273 217.49113281 130.97810547 217.98226562 129.93652344 218.48828125 C115.86494075 225.34540737 102.17709826 232.71189886 88.60888672 240.51416016 C85.53372043 242.26556031 82.43039691 243.96019847 79.32080078 245.64941406 C38.04490702 268.15323162 -3.13009116 295.4614115 -38.66796875 326.31640625 C-41 328 -41 328 -44.5625 327.875 C-47.39349652 327.1543827 -49.45806305 326.34605852 -52 325 C-42.59816435 309.78612049 -32.17162537 295.22222333 -21.94799805 280.55639648 C-17.7260564 274.49587552 -13.5356995 268.41520009 -9.375 262.3125 C-0.57109951 249.4066431 8.42662658 236.63683845 17.4375 223.875 C17.92976074 223.17729492 18.42202148 222.47958984 18.92919922 221.76074219 C21.03432566 218.77806047 23.14366024 215.79887566 25.265625 212.828125 C26.21695312 211.49007812 26.21695312 211.49007812 27.1875 210.125 C27.71730469 209.38507813 28.24710938 208.64515625 28.79296875 207.8828125 C31.32404031 203.93466852 31.19044286 200.03384449 31.23828125 195.51171875 C31.24812042 194.75430893 31.25795959 193.99689911 31.26809692 193.21653748 C31.90204392 131.09483815 18.2702123 70.22797416 2.40815735 10.46603394 C1.49207478 6.99388054 0.65682359 3.53085218 0 0 Z " fill="#8CBF48" transform="translate(1331,366)"/>
<path d="M0 0 C1.3090713 2.6181426 0.77887398 3.57512435 0.04711914 6.3815918 C-0.18769165 7.29813538 -0.42250244 8.21467896 -0.66442871 9.15899658 C-1.06063416 10.66390656 -1.06063416 10.66390656 -1.46484375 12.19921875 C-2.01975332 14.36051782 -2.5743459 16.52189829 -3.12866211 18.68334961 C-3.57168167 20.39625687 -3.57168167 20.39625687 -4.02365112 22.14376831 C-17.89115322 75.91929715 -31.21801358 132.84962517 -30.0546875 188.75390625 C-30 192 -30 192 -30.1953125 195.15234375 C-30.37595736 205.59103626 -24.78453949 211.94772477 -18.66845703 219.82373047 C-16.04588316 223.24451236 -13.5913833 226.77837343 -11.125 230.3125 C-10.12952696 231.72439617 -9.13342172 233.1358468 -8.13671875 234.546875 C-0.13954338 245.89377228 7.8291774 257.25970166 15.67602539 268.71118164 C19.75615526 274.66023129 23.87751498 280.58025024 28 286.5 C29.36459952 288.46353042 30.72918309 290.42707192 32.09375 292.390625 C34.54037257 295.90944393 36.9981095 299.41988573 39.46875 302.921875 C40.47923991 304.36453204 41.48966164 305.80723683 42.5 307.25 C42.96277344 307.89904297 43.42554688 308.54808594 43.90234375 309.21679688 C47 313.66063084 47 313.66063084 47 317 C45.44240657 317.53532823 43.87861955 318.05265378 42.3125 318.5625 C41.44238281 318.85253906 40.57226562 319.14257812 39.67578125 319.44140625 C35.88567807 320.23262487 33.20346511 319.72970911 29.88208008 317.71582031 C29.18493896 317.17538086 28.48779785 316.63494141 27.76953125 316.078125 C26.97716064 315.47218506 26.18479004 314.86624512 25.3684082 314.24194336 C24.5249585 313.58460205 23.68150879 312.92726074 22.8125 312.25 C20.99041075 310.85959211 19.16747969 309.47028676 17.34375 308.08203125 C16.43496094 307.38674316 15.52617188 306.69145508 14.58984375 305.97509766 C-56.2483885 251.95159663 -137.09680897 210.61318479 -259.81640625 163.3984375 C-260.768535 163.0840699 -260.768535 163.0840699 -261.73989868 162.76335144 C-264.76909509 161.76590808 -267.80178527 160.78179678 -270.84082031 159.81469727 C-271.90010742 159.47237061 -272.95939453 159.13004395 -274.05078125 158.77734375 C-274.98575439 158.48077881 -275.92072754 158.18421387 -276.8840332 157.87866211 C-279 157 -279 157 -280 155 C-279.13752655 155.11275269 -279.13752655 155.11275269 -278.25762939 155.2277832 C-272.2551992 156.01223633 -266.25255191 156.79501159 -260.24975586 157.57666016 C-258.17565831 157.84684911 -256.10159839 158.11732719 -254.02758789 158.38818359 C-207.50357864 164.46119222 -161.03866833 169.16855205 -114.0625 169.1875 C-112.79059814 169.18838623 -111.51869629 169.18927246 -110.20825195 169.19018555 C-106.80315569 169.16923323 -103.40390077 169.08755848 -100 169 C-98.46230957 169.02682861 -98.46230957 169.02682861 -96.89355469 169.05419922 C-91.64193951 169.00760069 -91.64193951 169.00760069 -87.23168945 166.4753418 C-85.63209227 164.31454752 -84.37708542 162.12886843 -83.125 159.75 C-82.11790985 158.00218775 -81.1100707 156.2548069 -80.1015625 154.5078125 C-79.34020996 153.14317871 -79.34020996 153.14317871 -78.56347656 151.75097656 C-76.52906683 148.17138118 -74.34067041 144.70149206 -72.14013672 141.22241211 C-60.75145887 123.18666581 -50.52283833 104.49289661 -40.45166016 85.69921875 C-39.19122774 83.35556911 -37.91785445 81.01986669 -36.63671875 78.6875 C-26.87016456 60.77994801 -18.7390766 41.99518998 -10.4375 23.375 C-9.94918701 22.28010254 -9.46087402 21.18520508 -8.95776367 20.05712891 C-6.43721221 14.36686634 -4.02218938 8.65672423 -1.78149414 2.85009766 C-1 1 -1 1 0 0 Z " fill="#EE359C" transform="translate(807,360)"/>
<path d="M0 0 C1.57648315 0.01244751 1.57648315 0.01244751 3.18481445 0.02514648 C20.83155371 0.40744035 35.90661945 7.1398834 48.4609375 19.546875 C61.12601951 32.9740393 67.81446359 48.77953727 67.625 67.25 C67.61670166 68.30098877 67.60840332 69.35197754 67.59985352 70.43481445 C67.21755965 88.08155371 60.4851166 103.15661945 48.078125 115.7109375 C34.6509607 128.37601951 18.84546273 135.06446359 0.375 134.875 C-0.67598877 134.86670166 -1.72697754 134.85840332 -2.80981445 134.84985352 C-20.45655371 134.46755965 -35.53161945 127.7351166 -48.0859375 115.328125 C-60.75101951 101.9009607 -67.43946359 86.09546273 -67.25 67.625 C-67.24170166 66.57401123 -67.23340332 65.52302246 -67.22485352 64.44018555 C-66.84255965 46.79344629 -60.1101166 31.71838055 -47.703125 19.1640625 C-34.2759607 6.49898049 -18.47046273 -0.18946359 0 0 Z " fill="#FCC300" transform="translate(610.8125,806.5625)"/>
<path d="M0 0 C9.00374635 6.60770806 16.1583144 15.2707647 18.55078125 26.421875 C19.67244157 39.24593352 19.05569382 50.58227004 11.23828125 61.234375 C4.43748715 69.31752222 -4.52967336 76.64172415 -15.47290039 77.59887695 C-30.26959308 78.02328215 -41.13645387 76.87123904 -52.44921875 66.421875 C-60.25184173 58.88585645 -64.49638569 49.648466 -64.74194336 38.87255859 C-64.85446908 24.57206805 -61.89252667 15.16388485 -51.79296875 4.70703125 C-38.16797908 -7.92179172 -15.64971916 -10.08371059 0 0 Z " fill="#8CBF49" transform="translate(1481.44921875,430.578125)"/>
<path d="M0 0 C9.00374635 6.60770806 16.1583144 15.2707647 18.55078125 26.421875 C19.67244157 39.24593352 19.05569382 50.58227004 11.23828125 61.234375 C4.43748715 69.31752222 -4.52967336 76.64172415 -15.47290039 77.59887695 C-30.26959308 78.02328215 -41.13645387 76.87123904 -52.44921875 66.421875 C-60.25184173 58.88585645 -64.49638569 49.648466 -64.74194336 38.87255859 C-64.85446908 24.57206805 -61.89252667 15.16388485 -51.79296875 4.70703125 C-38.16797908 -7.92179172 -15.64971916 -10.08371059 0 0 Z " fill="#0EA1A8" transform="translate(1090.44921875,328.578125)"/>
<path d="M0 0 C9.00374635 6.60770806 16.1583144 15.2707647 18.55078125 26.421875 C19.67244157 39.24593352 19.05569382 50.58227004 11.23828125 61.234375 C4.43748715 69.31752222 -4.52967336 76.64172415 -15.47290039 77.59887695 C-30.26959308 78.02328215 -41.13645387 76.87123904 -52.44921875 66.421875 C-60.25184173 58.88585645 -64.49638569 49.648466 -64.74194336 38.87255859 C-64.85446908 24.57206805 -61.89252667 15.16388485 -51.79296875 4.70703125 C-38.16797908 -7.92179172 -15.64971916 -10.08371059 0 0 Z " fill="#EE359D" transform="translate(704.44921875,425.578125)"/>
<path d="M0 0 C3.96 0 7.92 0 12 0 C16.455 13.365 16.455 13.365 21 27 C23.92006084 18.48949572 23.92006084 18.48949572 26.83374023 9.97680664 C27.37816772 8.3969397 27.37816772 8.3969397 27.93359375 6.78515625 C28.30540771 5.70113525 28.67722168 4.61711426 29.06030273 3.50024414 C30 1 30 1 31 0 C34.63 0 38.26 0 42 0 C44.31 14.85 46.62 29.7 49 45 C45.37 45 41.74 45 38 45 C37.79503906 43.21851563 37.59007812 41.43703125 37.37890625 39.6015625 C37.10696765 37.27601864 36.83482151 34.95049905 36.5625 32.625 C36.42779297 31.449375 36.29308594 30.27375 36.15429688 29.0625 C36.02216797 27.94101563 35.89003906 26.81953125 35.75390625 25.6640625 C35.63345947 24.62717285 35.5130127 23.5902832 35.38891602 22.52197266 C35.1333991 20.01207334 35.1333991 20.01207334 34 18 C31.03 26.91 28.06 35.82 25 45 C22.69 45 20.38 45 18 45 C14.0949657 35.85762558 11.09921689 26.43852417 8 17 C6.68 26.24 5.36 35.48 4 45 C0.7 45 -2.6 45 -6 45 C-5.31981255 35.14900928 -3.96012996 25.49610325 -2.4375 15.75 C-2.20079443 14.2149019 -1.96446385 12.67974594 -1.72851562 11.14453125 C-1.15665437 7.42900775 -0.57976026 3.7142988 0 0 Z " fill="#FCC300" transform="translate(1383,1564)"/>
<path d="M0 0 C12 0 12 0 15.98828125 3.62109375 C17.13603835 5.19843618 18.24381997 6.80554458 19.3125 8.4375 C19.86744141 9.22060547 20.42238281 10.00371094 20.99414062 10.81054688 C22.05153191 12.3026844 23.09291921 13.80642608 24.1105957 15.32592773 C26.93302735 19.3205128 29.99715688 23.13920171 33 27 C33.33 18.09 33.66 9.18 34 0 C37.63 0 41.26 0 45 0 C45 14.85 45 29.7 45 45 C34 45 34 45 31.08984375 42.83203125 C30.02443359 41.33736328 30.02443359 41.33736328 28.9375 39.8125 C28.54175781 39.28019775 28.14601563 38.74789551 27.73828125 38.19946289 C26.90117533 37.0699951 26.07827393 35.92987731 25.26904297 34.78027344 C23.53358834 32.34569569 21.68639283 30.0055624 19.84204102 27.65307617 C17.11892054 24.17201967 14.45289114 20.67933672 12 17 C11.67 26.24 11.34 35.48 11 45 C7.37 45 3.74 45 0 45 C0 30.15 0 15.3 0 0 Z " fill="#FCC300" transform="translate(1456,1564)"/>
<path d="M0 0 C5.445 -0.0928125 5.445 -0.0928125 11 -0.1875 C12.12792969 -0.21481201 13.25585938 -0.24212402 14.41796875 -0.27026367 C21.58358382 -0.32900858 27.51877614 0.10100173 33.2421875 4.8671875 C33.78101563 5.52976562 34.31984375 6.19234375 34.875 6.875 C35.70644531 7.86113281 35.70644531 7.86113281 36.5546875 8.8671875 C40.81301099 15.1510919 40.81274327 21.63397938 40 29 C38.33412043 34.74147332 35.93239932 38.78732073 30.875 42.0625 C26.66081871 44.36636176 23.25414777 45.12303782 18.45703125 45.09765625 C17.00647339 45.09390991 17.00647339 45.09390991 15.52661133 45.09008789 C14.30095459 45.08098389 13.07529785 45.07187988 11.8125 45.0625 C5.9653125 45.0315625 5.9653125 45.0315625 0 45 C0 30.15 0 15.3 0 0 Z M10 8 C10 17.57 10 27.14 10 37 C18.73273032 37.2071391 18.73273032 37.2071391 26 34 C29.22119556 30.24193852 30.14799104 25.88370431 30 21 C29.16468901 16.74060431 28.11575176 13.15174376 25.0625 10 C19.83408818 7.46501245 16.10336057 8 10 8 Z " fill="#FCC300" transform="translate(1510,1564)"/>
<path d="M0 0 C3.96 0 7.92 0 12 0 C14.5679222 6.57388083 16.66147472 13.24175508 18.6875 20 C19.780625 23.63 20.87375 27.26 22 31 C25.3 20.77 28.6 10.54 32 0 C35.96 0 39.92 0 44 0 C41.60295381 8.61384584 38.48477548 16.89069578 35.27441406 25.22583008 C34.3656143 27.58688397 33.46370685 29.95049199 32.5625 32.31445312 C31.98738081 33.81525814 31.41187448 35.31591487 30.8359375 36.81640625 C30.56615082 37.52358292 30.29636414 38.23075958 30.0184021 38.95936584 C28.11537783 43.88462217 28.11537783 43.88462217 27 45 C23.66672158 45.1424478 20.33546107 45.04222103 17 45 C13.25552797 36.2454223 9.82414482 27.39696356 6.49584961 18.4777832 C5.67401837 16.27638747 4.84796376 14.07660748 4.02148438 11.87695312 C3.49715016 10.47665447 2.97305232 9.07626727 2.44921875 7.67578125 C2.20241867 7.01862625 1.95561859 6.36147125 1.70133972 5.68440247 C0 1.11539916 0 1.11539916 0 0 Z " fill="#FCC300" transform="translate(935,1564)"/>
<path d="M0 0 C8.91 0 17.82 0 27 0 C27 2.64 27 5.28 27 8 C21.39 8 15.78 8 10 8 C10 11.3 10 14.6 10 18 C15.61 18 21.22 18 27 18 C27 20.64 27 23.28 27 26 C21.39 26 15.78 26 10 26 C10 29.63 10 33.26 10 37 C15.61 37 21.22 37 27 37 C27 39.64 27 42.28 27 45 C18.09 45 9.18 45 0 45 C0 30.15 0 15.3 0 0 Z " fill="#FCC300" transform="translate(984,1564)"/>
<path d="M0 0 C2.4191061 1.78249923 3.40403542 2.93420272 4.375 5.75 C2.125 7.8125 2.125 7.8125 -0.625 9.75 C-2.5625 9.5625 -2.5625 9.5625 -4.625 8.75 C-7.64770522 8.00999616 -7.64770522 8.00999616 -10.625 7.75 C-11.615 8.41 -12.605 9.07 -13.625 9.75 C-13.60300529 11.65848922 -13.60300529 11.65848922 -12.625 13.75 C-9.80117968 15.56593456 -9.80117968 15.56593456 -6.375 17.125 C2.65957153 21.72142876 2.65957153 21.72142876 5.375 26.75 C6.14177235 31.11053368 5.89208047 34.56071491 4.125 38.625 C1.49835292 41.81450003 -0.70219596 43.44239865 -4.625 44.75 C-12.22802553 45.37673589 -18.5435348 45.72574426 -24.625 40.75 C-25.8125 38.8125 -25.8125 38.8125 -25.625 36.75 C-23.6875 34 -23.6875 34 -21.625 31.75 C-17.625 33.75 -17.625 33.75 -15.75 34.9375 C-12.68987983 36.10754595 -10.72258385 35.69274291 -7.625 34.75 C-6.18862302 32.79836882 -6.18862302 32.79836882 -5.625 30.75 C-8.52090356 27.580898 -11.3037985 25.68159636 -15.125 23.75 C-18.92641445 21.82840588 -21.87603124 20.043753 -24.625 16.75 C-25.71067398 12.26254757 -25.9773218 9.89504586 -24.625 5.5 C-18.66661753 -2.6927759 -9.09394139 -3.13584186 0 0 Z " fill="#FCC300" transform="translate(1580.625,1564.25)"/>
<path d="M0 0 C2.4191061 1.78249923 3.40403542 2.93420272 4.375 5.75 C2.125 7.8125 2.125 7.8125 -0.625 9.75 C-2.5625 9.5625 -2.5625 9.5625 -4.625 8.75 C-7.64770522 8.00999616 -7.64770522 8.00999616 -10.625 7.75 C-11.615 8.41 -12.605 9.07 -13.625 9.75 C-13.60300529 11.65848922 -13.60300529 11.65848922 -12.625 13.75 C-9.80117968 15.56593456 -9.80117968 15.56593456 -6.375 17.125 C2.65957153 21.72142876 2.65957153 21.72142876 5.375 26.75 C6.14177235 31.11053368 5.89208047 34.56071491 4.125 38.625 C1.49835292 41.81450003 -0.70219596 43.44239865 -4.625 44.75 C-12.22802553 45.37673589 -18.5435348 45.72574426 -24.625 40.75 C-25.8125 38.8125 -25.8125 38.8125 -25.625 36.75 C-23.6875 34 -23.6875 34 -21.625 31.75 C-17.625 33.75 -17.625 33.75 -15.75 34.9375 C-12.68987983 36.10754595 -10.72258385 35.69274291 -7.625 34.75 C-6.18862302 32.79836882 -6.18862302 32.79836882 -5.625 30.75 C-8.52090356 27.580898 -11.3037985 25.68159636 -15.125 23.75 C-18.92641445 21.82840588 -21.87603124 20.043753 -24.625 16.75 C-25.71067398 12.26254757 -25.9773218 9.89504586 -24.625 5.5 C-18.66661753 -2.6927759 -9.09394139 -3.13584186 0 0 Z " fill="#FCC300" transform="translate(1042.625,1564.25)"/>
<path d="M0 0 C2.12654683 1.56552317 3.93323527 3.05015546 5.5546875 5.14453125 C5.5546875 6.13453125 5.5546875 7.12453125 5.5546875 8.14453125 C3.9296875 8.95703125 3.9296875 8.95703125 1.5546875 9.14453125 C0.04998108 7.93422391 -1.45030321 6.71594502 -2.890625 5.4296875 C-6.74951434 2.23980159 -10.63614426 1.9815571 -15.4453125 2.26953125 C-21.5428716 3.06605924 -24.98587375 5.25120531 -28.7578125 10.14453125 C-31.69633949 15.36857923 -32.32232256 20.23514741 -30.984375 26.19921875 C-29.28505096 31.49711136 -27.06712369 34.06332379 -22.4453125 37.14453125 C-17.16935727 39.78250886 -12.0796392 39.39965768 -6.4453125 38.14453125 C-1.48396293 35.70895964 0.53285897 33.2523086 2.5546875 28.14453125 C2.8846875 26.82453125 3.2146875 25.50453125 3.5546875 24.14453125 C-1.7253125 24.14453125 -7.0053125 24.14453125 -12.4453125 24.14453125 C-12.4453125 22.82453125 -12.4453125 21.50453125 -12.4453125 20.14453125 C-5.5153125 20.14453125 1.4146875 20.14453125 8.5546875 20.14453125 C8.5546875 27.6108031 7.6790714 31.68257229 3.8671875 37.89453125 C-1.37227771 42.9923893 -6.06698384 44.41566498 -13.3828125 44.64453125 C-20.45918912 44.4023451 -26.11376379 43.46168882 -31.25390625 38.34375 C-36.12683468 32.32562496 -37.92231319 26.09899826 -37.6875 18.40234375 C-36.86787114 10.76128762 -33.05191991 5.25747511 -27.4453125 0.14453125 C-19.69770331 -4.91513189 -7.88893106 -4.79091736 0 0 Z " fill="#2E3190" transform="translate(1345.4453125,1565.85546875)"/>
<path d="M0 0 C2.12654683 1.56552317 3.93323527 3.05015546 5.5546875 5.14453125 C5.5546875 6.13453125 5.5546875 7.12453125 5.5546875 8.14453125 C3.9296875 8.95703125 3.9296875 8.95703125 1.5546875 9.14453125 C0.04998108 7.93422391 -1.45030321 6.71594502 -2.890625 5.4296875 C-6.74951434 2.23980159 -10.63614426 1.9815571 -15.4453125 2.26953125 C-21.5428716 3.06605924 -24.98587375 5.25120531 -28.7578125 10.14453125 C-31.69633949 15.36857923 -32.32232256 20.23514741 -30.984375 26.19921875 C-29.28505096 31.49711136 -27.06712369 34.06332379 -22.4453125 37.14453125 C-17.16935727 39.78250886 -12.0796392 39.39965768 -6.4453125 38.14453125 C-1.48396293 35.70895964 0.53285897 33.2523086 2.5546875 28.14453125 C2.8846875 26.82453125 3.2146875 25.50453125 3.5546875 24.14453125 C-1.7253125 24.14453125 -7.0053125 24.14453125 -12.4453125 24.14453125 C-12.4453125 22.82453125 -12.4453125 21.50453125 -12.4453125 20.14453125 C-5.5153125 20.14453125 1.4146875 20.14453125 8.5546875 20.14453125 C8.5546875 27.6108031 7.6790714 31.68257229 3.8671875 37.89453125 C-1.37227771 42.9923893 -6.06698384 44.41566498 -13.3828125 44.64453125 C-20.45918912 44.4023451 -26.11376379 43.46168882 -31.25390625 38.34375 C-36.12683468 32.32562496 -37.92231319 26.09899826 -37.6875 18.40234375 C-36.86787114 10.76128762 -33.05191991 5.25747511 -27.4453125 0.14453125 C-19.69770331 -4.91513189 -7.88893106 -4.79091736 0 0 Z " fill="#2E3190" transform="translate(1127.4453125,1565.85546875)"/>
<path d="M0 0 C2.12654683 1.56552317 3.93323527 3.05015546 5.5546875 5.14453125 C5.5546875 6.13453125 5.5546875 7.12453125 5.5546875 8.14453125 C3.9296875 8.95703125 3.9296875 8.95703125 1.5546875 9.14453125 C0.04998108 7.93422391 -1.45030321 6.71594502 -2.890625 5.4296875 C-6.74951434 2.23980159 -10.63614426 1.9815571 -15.4453125 2.26953125 C-21.5428716 3.06605924 -24.98587375 5.25120531 -28.7578125 10.14453125 C-31.69633949 15.36857923 -32.32232256 20.23514741 -30.984375 26.19921875 C-29.28505096 31.49711136 -27.06712369 34.06332379 -22.4453125 37.14453125 C-17.16935727 39.78250886 -12.0796392 39.39965768 -6.4453125 38.14453125 C-1.48396293 35.70895964 0.53285897 33.2523086 2.5546875 28.14453125 C2.8846875 26.82453125 3.2146875 25.50453125 3.5546875 24.14453125 C-1.7253125 24.14453125 -7.0053125 24.14453125 -12.4453125 24.14453125 C-12.4453125 22.82453125 -12.4453125 21.50453125 -12.4453125 20.14453125 C-5.5153125 20.14453125 1.4146875 20.14453125 8.5546875 20.14453125 C8.5546875 27.6108031 7.6790714 31.68257229 3.8671875 37.89453125 C-1.37227771 42.9923893 -6.06698384 44.41566498 -13.3828125 44.64453125 C-20.45918912 44.4023451 -26.11376379 43.46168882 -31.25390625 38.34375 C-36.12683468 32.32562496 -37.92231319 26.09899826 -37.6875 18.40234375 C-36.86787114 10.76128762 -33.05191991 5.25747511 -27.4453125 0.14453125 C-19.69770331 -4.91513189 -7.88893106 -4.79091736 0 0 Z " fill="#2E3190" transform="translate(855.4453125,1565.85546875)"/>
<path d="M0 0 C24.91111111 0 24.91111111 0 31.875 6.8125 C36.43755062 13.65632593 36.8343745 20.9795751 36 29 C34.3042886 35.40709137 31.45717341 39.32476076 26 43 C21 45 21 45 0 45 C0 30.15 0 15.3 0 0 Z M5 4 C5 16.21 5 28.42 5 41 C15.04091147 41.45252431 15.04091147 41.45252431 24 39 C28.87960807 34.12039193 31.27510611 29.5901678 31.375 22.6875 C31.2597042 17.34065729 30.28002646 13.27917299 27 9 C20.00748126 3.19769721 14.21435332 4 5 4 Z " fill="#2E3190" transform="translate(1203,1564)"/>
<path d="M0 0 C3.58210066 1.79105033 4.68311503 2.4905282 7.0625 5.375 C10.12490447 8.99719883 13.28150821 12.51658474 16.5 16 C20.28303762 20.10560221 24.01285737 24.24961955 27.66015625 28.4765625 C28.72887904 29.69172835 29.8557106 30.8557106 31 32 C31.33 21.44 31.66 10.88 32 0 C33.65 0 35.3 0 37 0 C37 14.85 37 29.7 37 45 C29.12333966 38.24857685 29.12333966 38.24857685 25.5 34.125 C24.73816406 33.26261719 23.97632813 32.40023438 23.19140625 31.51171875 C22.46824219 30.68285156 21.74507812 29.85398437 21 29 C20.39027344 28.30519531 19.78054688 27.61039063 19.15234375 26.89453125 C17.43249524 24.93178842 15.7162519 22.96588854 14 21 C11.36 18.03 8.72 15.06 6 12 C5.67 22.89 5.34 33.78 5 45 C3.35 45 1.7 45 0 45 C0 30.15 0 15.3 0 0 Z " fill="#2E3190" transform="translate(1263,1564)"/>
<path d="M0 0 C3.58210066 1.79105033 4.68311503 2.4905282 7.0625 5.375 C10.12490447 8.99719883 13.28150821 12.51658474 16.5 16 C20.28303762 20.10560221 24.01285737 24.24961955 27.66015625 28.4765625 C28.72887904 29.69172835 29.8557106 30.8557106 31 32 C31.33 21.44 31.66 10.88 32 0 C33.65 0 35.3 0 37 0 C37 14.85 37 29.7 37 45 C29.12333966 38.24857685 29.12333966 38.24857685 25.5 34.125 C24.73816406 33.26261719 23.97632813 32.40023438 23.19140625 31.51171875 C22.46824219 30.68285156 21.74507812 29.85398437 21 29 C20.39027344 28.30519531 19.78054688 27.61039063 19.15234375 26.89453125 C17.43249524 24.93178842 15.7162519 22.96588854 14 21 C11.36 18.03 8.72 15.06 6 12 C5.67 22.89 5.34 33.78 5 45 C3.35 45 1.7 45 0 45 C0 30.15 0 15.3 0 0 Z " fill="#2E3190" transform="translate(772,1564)"/>
<path d="M0 0 C3.3 0 6.6 0 10 0 C10 12.21 10 24.42 10 37 C15.28 37 20.56 37 26 37 C26 39.64 26 42.28 26 45 C17.42 45 8.84 45 0 45 C0 30.15 0 15.3 0 0 Z " fill="#FCC300" transform="translate(890,1564)"/>
<path d="M0 0 C16 0 16 0 22 4 C24.75922 8.01557954 24.52113662 12.30136501 24 17 C22.9375 19.875 22.9375 19.875 21 22 C18.685799 23.04351242 16.35325149 24.04781732 14 25 C14.38333496 25.49927002 14.76666992 25.99854004 15.16162109 26.51293945 C16.90039041 28.77871232 18.6377098 31.04559285 20.375 33.3125 C20.97828125 34.09818359 21.5815625 34.88386719 22.203125 35.69335938 C22.78320312 36.45068359 23.36328125 37.20800781 23.9609375 37.98828125 C24.49509277 38.68477783 25.02924805 39.38127441 25.57958984 40.09887695 C26.77199712 41.69483354 27.89491907 43.34237861 29 45 C25.953125 45.55078125 25.953125 45.55078125 22 45 C19.10284786 42.42159604 16.97694476 39.34715864 14.75 36.1875 C13.53780975 34.53416457 12.32431762 32.88178268 11.109375 31.23046875 C10.31998535 30.12288208 10.31998535 30.12288208 9.51464844 28.99291992 C7.86713838 26.73203441 7.86713838 26.73203441 5 24 C5 30.93 5 37.86 5 45 C3.35 45 1.7 45 0 45 C0 30.15 0 15.3 0 0 Z M5 4 C5 9.28 5 14.56 5 20 C11.52579469 20.18908183 11.52579469 20.18908183 17 18 C19.32579101 14.51131349 19.41865457 13.10281481 19 9 C17.68111615 6.56006488 16.80881433 5.34663471 14.25 4.25 C11.18440612 3.90937846 8.08445925 4 5 4 Z " fill="#2E3190" transform="translate(723,1564)"/>
<path d="M0 0 C1.65 0 3.3 0 5 0 C5.01458252 1.00377686 5.02916504 2.00755371 5.04418945 3.04174805 C5.10232052 6.7787575 5.17955165 10.51517369 5.26245117 14.25170898 C5.2956311 15.86651963 5.32368458 17.48144431 5.34643555 19.09643555 C5.38011025 21.42285592 5.43242963 23.74823783 5.48828125 26.07421875 C5.49467117 26.79212082 5.5010611 27.51002289 5.50764465 28.24967957 C5.63563679 32.64878649 6.31197422 35.48961952 9 39 C12.85177263 41.49232347 16.52555857 41.1596973 20.91015625 40.546875 C23.86961704 39.77243666 25.25447146 38.4728321 27 36 C28.18001549 32.45995354 28.22912346 29.1772744 28.31640625 25.48828125 C28.33718735 24.76005661 28.35796844 24.03183197 28.37937927 23.28153992 C28.44468746 20.95862125 28.50367237 18.63559094 28.5625 16.3125 C28.60570305 14.73631665 28.64931792 13.16014452 28.69335938 11.58398438 C28.8003496 7.72277025 28.90166961 3.86144397 29 0 C30.65 0 32.3 0 34 0 C34.07468636 4.55318701 34.12885256 9.10600998 34.16479492 13.65966797 C34.1797933 15.20562968 34.20019887 16.75154948 34.22631836 18.29736328 C34.49204472 34.43893735 34.49204472 34.43893735 31 41 C25.53972836 46.32376485 20.50082926 46.34643396 13.17578125 46.28125 C9.07939146 45.91847009 6.94197214 44.86455182 4 42 C0.33476206 36.81811188 -0.14153721 32.46085592 -0.09765625 26.26953125 C-0.0962413 25.51911057 -0.09482635 24.76868988 -0.09336853 23.99552917 C-0.0877756 21.6011454 -0.07522444 19.20685547 -0.0625 16.8125 C-0.05748408 15.18815239 -0.05292134 13.56380332 -0.04882812 11.93945312 C-0.03780848 7.95959931 -0.02054873 3.97981556 0 0 Z " fill="#2E3190" transform="translate(1144,1564)"/>
<path d="M0 0 C1.65 0 3.3 0 5 0 C5.01458252 1.00377686 5.02916504 2.00755371 5.04418945 3.04174805 C5.10232052 6.7787575 5.17955165 10.51517369 5.26245117 14.25170898 C5.2956311 15.86651963 5.32368458 17.48144431 5.34643555 19.09643555 C5.38011025 21.42285592 5.43242963 23.74823783 5.48828125 26.07421875 C5.49467117 26.79212082 5.5010611 27.51002289 5.50764465 28.24967957 C5.63563679 32.64878649 6.31197422 35.48961952 9 39 C12.85177263 41.49232347 16.52555857 41.1596973 20.91015625 40.546875 C23.86961704 39.77243666 25.25447146 38.4728321 27 36 C28.18001549 32.45995354 28.22912346 29.1772744 28.31640625 25.48828125 C28.33718735 24.76005661 28.35796844 24.03183197 28.37937927 23.28153992 C28.44468746 20.95862125 28.50367237 18.63559094 28.5625 16.3125 C28.60570305 14.73631665 28.64931792 13.16014452 28.69335938 11.58398438 C28.8003496 7.72277025 28.90166961 3.86144397 29 0 C30.65 0 32.3 0 34 0 C34.07468636 4.55318701 34.12885256 9.10600998 34.16479492 13.65966797 C34.1797933 15.20562968 34.20019887 16.75154948 34.22631836 18.29736328 C34.49204472 34.43893735 34.49204472 34.43893735 31 41 C25.53972836 46.32376485 20.50082926 46.34643396 13.17578125 46.28125 C9.07939146 45.91847009 6.94197214 44.86455182 4 42 C0.33476206 36.81811188 -0.14153721 32.46085592 -0.09765625 26.26953125 C-0.0962413 25.51911057 -0.09482635 24.76868988 -0.09336853 23.99552917 C-0.0877756 21.6011454 -0.07522444 19.20685547 -0.0625 16.8125 C-0.05748408 15.18815239 -0.05292134 13.56380332 -0.04882812 11.93945312 C-0.03780848 7.95959931 -0.02054873 3.97981556 0 0 Z " fill="#2E3190" transform="translate(679,1564)"/>
<path d="M0 0 C3.47971649 1.73985824 4.22953883 5.94758953 5.625 9.41796875 C5.97256348 10.26796951 6.32012695 11.11797028 6.67822266 11.99372864 C7.41429933 13.79734579 8.1471172 15.60229576 8.87695312 17.40844727 C9.98935557 20.16115966 11.11090348 22.90999236 12.234375 25.65820312 C12.94845881 27.41123759 13.66201728 29.16448617 14.375 30.91796875 C14.70838379 31.73694138 15.04176758 32.555914 15.38525391 33.39970398 C17.06544702 37.56170392 18.63890443 41.7195091 20 46 C18.02 46 16.04 46 14 46 C13.16260219 43.8765984 12.33019717 41.7512272 11.5 39.625 C10.80390625 37.84996094 10.80390625 37.84996094 10.09375 36.0390625 C9 33 9 33 9 31 C3.06 31 -2.88 31 -9 31 C-9.6496875 33.041875 -9.6496875 33.041875 -10.3125 35.125 C-11.57735623 38.93763807 -13.09147985 42.45560543 -15 46 C-16.65 46 -18.3 46 -20 46 C-16.52633519 36.66275665 -12.70669992 27.51881473 -8.69628906 18.40234375 C-7.73359344 16.21268312 -6.77670479 14.0205451 -5.8203125 11.828125 C-5.20866961 10.43214428 -4.59670314 9.03630528 -3.984375 7.640625 C-3.69898865 6.98660706 -3.41360229 6.33258911 -3.11956787 5.65875244 C-1.11527835 1.11527835 -1.11527835 1.11527835 0 0 Z M0 10 C-0.98669759 11.89192475 -1.9640602 13.78871978 -2.9375 15.6875 C-3.48277344 16.74324219 -4.02804687 17.79898437 -4.58984375 18.88671875 C-6.23892718 22.21556339 -6.23892718 22.21556339 -7 27 C-2.38 27 2.24 27 7 27 C5.12270561 21.27872186 3.14779635 15.62518091 1 10 C0.67 10 0.34 10 0 10 Z " fill="#2E3190" transform="translate(592,1563)"/>
<path d="M0 0 C3.3 0 6.6 0 10 0 C10 14.85 10 29.7 10 45 C6.7 45 3.4 45 0 45 C0 30.15 0 15.3 0 0 Z " fill="#FCC300" transform="translate(1437,1564)"/>
<path d="M0 0 C3.3 0 6.6 0 10 0 C10 14.85 10 29.7 10 45 C6.7 45 3.4 45 0 45 C0 30.15 0 15.3 0 0 Z " fill="#FCC300" transform="translate(921,1564)"/>
<path d="M0 0 C3.125 1.8125 3.125 1.8125 5 4 C5 4.99 5 5.98 5 7 C3.3125 7.6875 3.3125 7.6875 1 8 C0.21625 7.505 -0.5675 7.01 -1.375 6.5 C-3.96802577 4.70178882 -3.96802577 4.70178882 -7.25 5.1875 C-8.1575 5.455625 -9.065 5.72375 -10 6 C-11.43735246 8.87470493 -11.38172649 10.81894588 -11 14 C-7.51879977 17.71328024 -2.72091323 19.96763515 1.6953125 22.4375 C5.5977918 25.08324868 6.82092663 27.21975175 7.875 31.8125 C8.35786014 36.98876065 6.76035774 40.79955283 3.5 44.875 C-0.6146958 47.96102185 -6.1226902 47.56130781 -11 47 C-14.85544798 45.00342873 -16.59805092 43.60292362 -19 40 C-19 39.01 -19 38.02 -19 37 C-17.02 36.505 -17.02 36.505 -15 36 C-14.484375 36.804375 -13.96875 37.60875 -13.4375 38.4375 C-11.15315392 41.28504925 -11.15315392 41.28504925 -7.5 41.9375 C-3.30737911 42.1303129 -3.30737911 42.1303129 0 40 C1.42361525 36.57038144 2.26979915 34.18973932 1.4375 30.51953125 C-0.53755952 27.05781009 -2.91572594 25.92786509 -6.375 24 C-10.88120214 21.47734057 -14.18501239 19.39545053 -17 15 C-17.76894989 11.90298802 -17.67184432 9.1164543 -17 6 C-12.08934793 -0.20292893 -7.58491845 -0.88113652 0 0 Z " fill="#2E3190" transform="translate(664,1563)"/>
<path d="M0 0 C3.125 1.8125 3.125 1.8125 5 4 C5 4.99 5 5.98 5 7 C3.3125 7.6875 3.3125 7.6875 1 8 C0.21625 7.505 -0.5675 7.01 -1.375 6.5 C-3.96802577 4.70178882 -3.96802577 4.70178882 -7.25 5.1875 C-8.1575 5.455625 -9.065 5.72375 -10 6 C-11.43735246 8.87470493 -11.38172649 10.81894588 -11 14 C-7.51879977 17.71328024 -2.72091323 19.96763515 1.6953125 22.4375 C5.5977918 25.08324868 6.82092663 27.21975175 7.875 31.8125 C8.35786014 36.98876065 6.76035774 40.79955283 3.5 44.875 C-0.6146958 47.96102185 -6.1226902 47.56130781 -11 47 C-14.85544798 45.00342873 -16.59805092 43.60292362 -19 40 C-19 39.01 -19 38.02 -19 37 C-17.02 36.505 -17.02 36.505 -15 36 C-14.484375 36.804375 -13.96875 37.60875 -13.4375 38.4375 C-11.15315392 41.28504925 -11.15315392 41.28504925 -7.5 41.9375 C-3.30737911 42.1303129 -3.30737911 42.1303129 0 40 C1.42361525 36.57038144 2.26979915 34.18973932 1.4375 30.51953125 C-0.53755952 27.05781009 -2.91572594 25.92786509 -6.375 24 C-10.88120214 21.47734057 -14.18501239 19.39545053 -17 15 C-17.76894989 11.90298802 -17.67184432 9.1164543 -17 6 C-12.08934793 -0.20292893 -7.58491845 -0.88113652 0 0 Z " fill="#2E3190" transform="translate(632,1563)"/>
<path d="M0 0 C1.65 0 3.3 0 5 0 C5 14.85 5 29.7 5 45 C3.35 45 1.7 45 0 45 C0 30.15 0 15.3 0 0 Z " fill="#2E3190" transform="translate(1248,1564)"/>
<path d="M0 0 C1.65 0 3.3 0 5 0 C5 14.85 5 29.7 5 45 C3.35 45 1.7 45 0 45 C0 30.15 0 15.3 0 0 Z " fill="#2E3190" transform="translate(1188,1564)"/>
<path d="M0 0 C1.65 0 3.3 0 5 0 C5 14.85 5 29.7 5 45 C3.35 45 1.7 45 0 45 C0 30.15 0 15.3 0 0 Z " fill="#2E3190" transform="translate(757,1564)"/>
<path d="M0 0 C2.97 0.495 2.97 0.495 6 1 C4.3341708 7.16356805 1.12194714 12.48259656 -2 18 C-3.32 17.67 -4.64 17.34 -6 17 C-4.02 11.39 -2.04 5.78 0 0 Z " fill="#2E3190" transform="translate(1060,1601)"/>
<path d="" fill="#FCC300" transform="translate(0,0)"/>
<path d="" fill="#FCC300" transform="translate(0,0)"/>
<path d="" fill="#FCC300" transform="translate(0,0)"/>
</svg>
